<svg xmlns="http://www.w3.org/2000/svg" viewBox="0 0 128 128">
  <circle id="ring" cx="64" cy="64" r="63" />
  <path id="功" d="M43.198,31.529c-1.295,0 -1.887,-0.037 -2.738,-0.259l0.222,1.221c0.851,-0.148 1.332,-0.185 2.405,-0.185l3.404,0c-0.444,6.29 -1.517,10.323 -3.7,13.949c-2.035,3.33 -4.884,6.142 -9.287,9.176l0.185,0.37c3.441,-1.332 5.143,-2.183 7.326,-3.774c4.292,-3.108 6.697,-6.364 8.251,-11.137c0.703,-2.22 1.11,-4.625 1.443,-8.584l5.587,0c0,3.737 -0.296,9.139 -0.629,12.173c-0.333,2.849 -0.777,4.958 -1.258,5.883c-0.296,0.592 -0.592,0.74 -1.517,0.74c-1.11,0 -2.22,-0.111 -6.808,-0.592l-0.074,0.407c3.293,1.036 3.885,1.295 4.551,1.85c0.666,0.592 0.999,1.295 1.11,2.22c0.037,0.518 0.185,0.666 0.629,0.666c0.222,0 0.703,-0.037 1.073,-0.074c2.22,-0.333 3.589,-1.073 4.477,-2.59c1.517,-2.405 2.479,-9.62 2.664,-19.721c1.184,-0.666 1.369,-0.814 1.369,-1.11c0,-0.148 -0.185,-0.333 -0.518,-0.629c-1.295,-1.036 -1.739,-1.369 -3.145,-2.405c-0.999,1.036 -1.295,1.369 -2.257,2.405l-5.18,0c0.185,-2.59 0.222,-3.515 0.333,-7.252c1.073,-0.333 1.48,-0.592 1.48,-0.962c0,-0.148 -0.148,-0.296 -0.296,-0.407c-0.444,-0.222 -0.518,-0.222 -5.772,-0.74c0.185,1.221 0.222,1.702 0.222,2.701c0,1.628 -0.111,4.662 -0.222,6.66l-3.33,0Zm-6.142,-3.626l6.253,0c0.259,0 0.444,-0.111 0.444,-0.259c0,-0.037 -0.111,-0.222 -0.222,-0.333c-1.702,-1.443 -2.22,-1.85 -3.922,-3.145c-1.073,1.258 -1.406,1.665 -2.442,2.96l-6.956,0c-0.74,0 -1.517,-0.111 -2.405,-0.296l0.222,1.258c0.851,-0.148 1.258,-0.185 2.183,-0.185l2.775,0l0,16.058c-2.072,0.481 -2.997,0.666 -5.254,0.962c1.591,5.254 1.739,5.587 2.183,5.587c0.333,0 0.518,-0.407 0.666,-1.628c7.289,-3.848 9.398,-5.069 12.95,-7.511l-0.185,-0.333c-2.516,0.851 -4.107,1.332 -6.29,1.887l0,-15.022Z" />
  <path id="夫" d="M96.108,39.114c0.259,0 0.407,-0.074 0.407,-0.222c0,-0.074 -0.037,-0.185 -0.185,-0.333c-1.924,-1.591 -2.516,-2.035 -4.403,-3.478l-2.812,3.256l-8.436,0c0.185,-1.554 0.481,-5.513 0.555,-7.622l12.765,0c0.259,0 0.444,-0.111 0.444,-0.259c0,-0.074 -0.074,-0.185 -0.259,-0.37c-1.776,-1.517 -2.331,-1.961 -4.144,-3.33c-1.258,1.369 -1.628,1.776 -2.849,3.182l-5.92,0c0.148,-4.033 0.148,-4.033 0.148,-5.624c1.184,-0.333 1.628,-0.555 1.628,-0.962c0,-0.185 -0.148,-0.333 -0.444,-0.444c-0.518,-0.222 -0.962,-0.296 -5.846,-0.703c0.185,1.702 0.222,2.812 0.222,4.884c0,0.999 0,1.628 -0.037,2.849l-8.14,0c-1.036,0 -1.85,-0.111 -3.108,-0.37l0.296,1.369c1.184,-0.185 1.813,-0.222 2.775,-0.222l8.177,0c-0.111,3.108 -0.333,5.92 -0.592,7.622l-9.879,0c-1.221,0 -2.035,-0.074 -3.404,-0.37l0.296,1.369c1.11,-0.185 1.776,-0.222 3.108,-0.222l9.731,0c-1.406,7.215 -5.513,12.173 -13.357,16.095l0.185,0.518c2.664,-0.74 3.885,-1.147 5.513,-1.85c3.478,-1.517 6.327,-3.663 8.399,-6.29c1.739,-2.257 3.034,-5.254 3.552,-8.251c1.369,5.291 3.996,9.62 7.77,12.691c1.665,1.406 4.588,3.108 5.254,3.108c0.259,0 0.407,-0.148 0.481,-0.444c0.222,-0.888 0.259,-1.036 0.518,-1.48c0.629,-1.184 1.369,-1.813 2.738,-2.405l0,-0.444c-4.107,-0.481 -7.659,-1.887 -10.693,-4.255c-2.553,-2.035 -4.366,-4.329 -5.439,-6.993l14.985,0Z" />
  <path id="D" d="M36.433,102.69c9.207,0 12.788,-5.058 12.788,-13.924l-0,-14.777c-0,-9.207 -3.638,-14.209 -12.788,-14.209l-6.479,0c-1.876,0 -3.297,1.478 -3.297,3.297l0,36.317c0,1.762 1.421,3.296 3.297,3.296l6.479,0Zm-0,-36.885c4.604,-0 6.195,2.216 6.195,7.104l-0,16.823c-0,4.319 -1.591,6.877 -6.195,6.877l-3.24,-0l0,-30.804l3.24,-0Z" />
  <path id="E" d="M70.761,65.748c1.648,-0 2.955,-1.364 2.955,-3.012c0,-1.592 -1.307,-2.956 -2.955,-2.956l-12.901,0c-1.876,0 -3.297,1.478 -3.297,3.297l0,36.317c0,1.762 1.421,3.296 3.297,3.296l12.901,0c1.648,0 2.955,-1.364 2.955,-3.012c0,-1.591 -1.307,-2.955 -2.955,-2.955l-9.662,-0l0,-12.902l8.184,0c1.535,0 2.842,-1.25 2.842,-2.842c0,-1.591 -1.307,-2.841 -2.842,-2.841l-8.184,-0l0,-12.39l9.662,-0Z" />
  <path id="V" d="M88.096,103.088c2.671,0 3.694,-2.16 3.921,-3.524l8.071,-36.317c0.454,-2.103 -1.194,-3.865 -3.126,-3.865c-1.648,0 -2.956,1.137 -3.183,2.672l-5.513,30.349l-5.74,-30.293c-0.284,-1.591 -1.535,-2.728 -3.297,-2.728c-2.216,0 -3.58,2.103 -3.239,4.036l8.127,36.146c0.341,1.649 1.364,3.524 3.979,3.524Z" />
  <style>
      circle { fill: #c42330; }
      path { fill: #fff; fill-rule:nonzero; }
  </style>
</svg>
